# This file uses centimeters as units for non-parametric coordinates.

mtllib tafel top.mtl
g default
v 4.119716 2.531661 -18.494346
v 0.187345 2.531661 -18.494346
v 4.119716 2.950022 -18.494346
v 0.187345 2.950022 -18.494346
v 4.119716 2.950022 -11.887740
v 0.187345 2.950022 -11.887740
v 4.119716 2.531661 -11.887740
v 0.187345 2.531661 -11.887740
v 4.119716 3.020512 -18.494346
v 0.187345 3.020512 -18.494346
v 0.187345 3.020512 -11.887740
v 4.119716 3.020512 -11.887740
v 4.357531 2.950022 -18.732161
v -0.050470 2.950022 -18.732161
v -0.050470 3.020512 -18.732161
v 4.357531 3.020512 -18.732161
v -0.050470 2.950022 -11.649925
v -0.050470 3.020512 -11.649925
v 4.357531 2.950022 -11.649925
v 4.357531 3.020512 -11.649925
vt 0.012413 0.981906
vt 0.012413 0.909581
vt 0.084738 0.909581
vt 0.084738 0.981906
vt 0.086348 0.909581
vt 0.158673 0.909581
vt 0.158673 0.981906
vt 0.086348 0.981906
vt 0.023940 0.023308
vt 0.982950 0.023308
vt 0.982950 0.888528
vt 0.023940 0.888528
vt 0.235752 0.910401
vt 0.308077 0.910401
vt 0.308077 0.982726
vt 0.235752 0.982726
vt 0.309347 0.910464
vt 0.381672 0.910464
vt 0.381672 0.982788
vt 0.309347 0.982788
vt 0.160681 0.982725
vt 0.160681 0.910401
vt 0.233006 0.910401
vt 0.233006 0.982725
vt 0.023940 0.023308
vt 0.982950 0.023308
vt 0.982950 0.888528
vt 0.023940 0.888528
vt 0.023940 0.023308
vt 0.982950 0.023308
vt 0.982950 0.023308
vt 0.023940 0.023308
vt 0.982950 0.888528
vt 0.982950 0.888528
vt 0.023940 0.888528
vt 0.023940 0.888528
vn 0.000000 0.000000 -1.000000
vn 0.000000 0.000000 -1.000000
vn 0.000000 0.000000 -1.000000
vn 0.000000 0.000000 -1.000000
vn -0.000000 1.000000 0.000000
vn -0.000000 1.000000 0.000000
vn -0.000000 1.000000 0.000000
vn -0.000000 1.000000 0.000000
vn -0.000000 0.000000 1.000000
vn -0.000000 0.000000 1.000000
vn -0.000000 0.000000 1.000000
vn -0.000000 0.000000 1.000000
vn 0.000000 -1.000000 0.000000
vn 0.000000 -1.000000 0.000000
vn 0.000000 -1.000000 0.000000
vn 0.000000 -1.000000 0.000000
vn -1.000000 0.000000 0.000000
vn -1.000000 0.000000 0.000000
vn -1.000000 0.000000 0.000000
vn -1.000000 0.000000 0.000000
vn 1.000000 0.000000 -0.000000
vn 1.000000 0.000000 -0.000000
vn 1.000000 0.000000 -0.000000
vn 1.000000 0.000000 -0.000000
vn 0.000000 0.000000 -1.000000
vn 0.000000 0.000000 -1.000000
vn 0.000000 0.000000 -1.000000
vn 0.000000 0.000000 -1.000000
vn -1.000000 0.000000 0.000000
vn -1.000000 0.000000 0.000000
vn -1.000000 0.000000 0.000000
vn -1.000000 0.000000 0.000000
vn -0.000000 0.000000 1.000000
vn -0.000000 0.000000 1.000000
vn -0.000000 0.000000 1.000000
vn -0.000000 0.000000 1.000000
vn 1.000000 0.000000 -0.000000
vn 1.000000 0.000000 -0.000000
vn 1.000000 0.000000 -0.000000
vn 1.000000 0.000000 -0.000000
vn 0.000000 -1.000000 0.000000
vn 0.000000 -1.000000 0.000000
vn 0.000000 -1.000000 0.000000
vn 0.000000 -1.000000 0.000000
vn -0.000000 1.000000 0.000000
vn -0.000000 1.000000 0.000000
vn 0.000000 -1.000000 0.000000
vn 0.000000 -1.000000 0.000000
vn -0.000000 1.000000 0.000000
vn 0.000000 -1.000000 0.000000
vn 0.000000 -1.000000 0.000000
vn -0.000000 1.000000 0.000000
s off
g pCube56
usemtl initialShadingGroup
f 1/17/1 2/18/2 4/19/3 3/20/4
s 1
f 9/25/5 10/26/6 11/27/7 12/28/8
s off
f 5/21/9 6/22/10 8/23/11 7/24/12
f 7/13/13 8/14/14 2/15/15 1/16/16
f 2/1/17 8/2/18 6/3/19 4/4/20
f 7/5/21 1/6/22 3/7/23 5/8/24
f 13/29/25 14/30/26 15/31/27 16/32/28
f 14/30/29 17/33/30 18/34/31 15/31/32
f 17/33/33 19/35/34 20/36/35 18/34/36
f 19/35/37 13/29/38 16/32/39 20/36/40
s 2
f 3/9/41 4/10/42 14/30/43 13/29/44
s 1
f 10/26/6 9/25/5 16/32/45 15/31/46
s 2
f 4/10/42 6/11/47 17/33/48 14/30/43
s 1
f 11/27/7 10/26/6 15/31/46 18/34/49
s 2
f 6/11/47 5/12/50 19/35/51 17/33/48
s 1
f 12/28/8 11/27/7 18/34/49 20/36/52
s 2
f 5/12/50 3/9/41 13/29/44 19/35/51
s 1
f 9/25/5 12/28/8 20/36/52 16/32/45
