# This file uses centimeters as units for non-parametric coordinates.

mtllib tafel poten.mtl
g default
v 0.142257 0.353086 -18.500205
v 0.142257 0.353086 -18.286883
v 0.142257 3.008462 -18.500205
v 0.142257 3.008462 -18.286883
v 0.372392 3.008462 -18.500205
v 0.372392 3.008462 -18.286883
v 0.372392 0.353086 -18.500205
v 0.372392 0.353086 -18.286883
v 0.372392 0.176809 -18.500205
v 0.372392 0.176809 -18.286883
v 0.142257 0.176809 -18.286883
v 0.142257 0.176809 -18.500205
v 0.372392 0.353086 -11.851953
v 0.372392 0.353086 -12.065276
v 0.372392 3.008462 -11.851953
v 0.372392 3.008462 -12.065276
v 0.142257 3.008462 -11.851953
v 0.142257 3.008462 -12.065276
v 0.142257 0.353086 -11.851953
v 0.142257 0.353086 -12.065276
v 0.142257 0.176809 -11.851953
v 0.142257 0.176809 -12.065276
v 0.372392 0.176809 -12.065276
v 0.372392 0.176809 -11.851953
vt 0.375000 0.000000
vt 0.625000 0.000000
vt 0.375000 0.250000
vt 0.625000 0.250000
vt 0.375000 0.500000
vt 0.625000 0.500000
vt 0.375000 0.750000
vt 0.625000 0.750000
vt 0.375000 1.000000
vt 0.625000 1.000000
vt 0.875000 0.000000
vt 0.875000 0.250000
vt 0.125000 0.000000
vt 0.125000 0.250000
vt 0.375000 0.750000
vt 0.625000 0.750000
vt 0.625000 1.000000
vt 0.375000 1.000000
vt 0.375000 0.000000
vt 0.625000 0.000000
vt 0.625000 0.250000
vt 0.375000 0.250000
vt 0.625000 0.500000
vt 0.375000 0.500000
vt 0.625000 0.750000
vt 0.375000 0.750000
vt 0.375000 0.750000
vt 0.625000 0.750000
vt 0.625000 1.000000
vt 0.375000 1.000000
vt 0.875000 0.000000
vt 0.875000 0.250000
vt 0.125000 0.000000
vt 0.125000 0.250000
vt 0.625000 1.000000
vt 0.375000 1.000000
vn -1.000000 0.000000 0.000000
vn -1.000000 0.000000 0.000000
vn -1.000000 0.000000 0.000000
vn -1.000000 0.000000 0.000000
vn 0.000000 1.000000 0.000000
vn 0.000000 1.000000 0.000000
vn 0.000000 1.000000 0.000000
vn 0.000000 1.000000 0.000000
vn 1.000000 0.000000 0.000000
vn 1.000000 0.000000 0.000000
vn 1.000000 0.000000 0.000000
vn 1.000000 0.000000 0.000000
vn 0.000000 -1.000000 0.000000
vn 0.000000 -1.000000 0.000000
vn 0.000000 -1.000000 0.000000
vn 0.000000 -1.000000 0.000000
vn 0.000000 0.000000 1.000000
vn 0.000000 0.000000 1.000000
vn 0.000000 0.000000 1.000000
vn 0.000000 0.000000 1.000000
vn 0.000000 0.000000 -1.000000
vn 0.000000 0.000000 -1.000000
vn 0.000000 0.000000 -1.000000
vn 0.000000 0.000000 -1.000000
vn 1.000000 0.000000 0.000000
vn 1.000000 0.000000 0.000000
vn -1.000000 0.000000 0.000000
vn -1.000000 0.000000 0.000000
vn 0.000000 0.000000 -1.000000
vn 0.000000 0.000000 -1.000000
vn 1.000000 0.000000 0.000000
vn 1.000000 0.000000 0.000000
vn 1.000000 0.000000 0.000000
vn 1.000000 0.000000 0.000000
vn 1.000000 0.000000 0.000000
vn 0.000000 1.000000 0.000000
vn 0.000000 1.000000 0.000000
vn 0.000000 1.000000 0.000000
vn 0.000000 1.000000 0.000000
vn -1.000000 0.000000 0.000000
vn -1.000000 0.000000 0.000000
vn -1.000000 0.000000 0.000000
vn -1.000000 0.000000 0.000000
vn 0.000000 -1.000000 0.000000
vn 0.000000 -1.000000 0.000000
vn 0.000000 -1.000000 0.000000
vn 0.000000 -1.000000 0.000000
vn 0.000000 0.000000 -1.000000
vn 0.000000 0.000000 -1.000000
vn 0.000000 0.000000 -1.000000
vn 0.000000 0.000000 -1.000000
vn 0.000000 0.000000 1.000000
vn 0.000000 0.000000 1.000000
vn 0.000000 0.000000 1.000000
vn 0.000000 0.000000 1.000000
vn -1.000000 0.000000 0.000000
vn -1.000000 0.000000 0.000000
vn 1.000000 0.000000 0.000000
vn 0.000000 0.000000 1.000000
vn 0.000000 0.000000 1.000000
vn 0.000000 1.000000 0.000000
vn 0.000000 1.000000 0.000000
vn 0.000000 1.000000 0.000000
vn 0.000000 1.000000 0.000000
s 1
g pCube42
usemtl initialShadingGroup
f 1/1/1 2/2/2 4/4/3 3/3/4
s off
f 3/3/5 4/4/6 6/6/7 5/5/8
s 2
f 5/5/9 6/6/10 8/8/11 7/7/12
s 3
f 9/15/13 10/16/14 11/17/15 12/18/16
s off
f 2/2/17 8/11/18 6/12/19 4/4/20
s 4
f 7/13/21 1/1/22 3/3/23 5/14/24
s 2
f 7/7/12 8/8/11 10/16/25 9/15/26
s 1
f 2/10/2 1/9/1 12/18/27 11/17/28
s 4
f 1/9/22 7/7/21 9/15/29 12/18/30
s 2
f 23/29/31 10/16/25 8/8/11 14/35/32
f 13/19/33 14/20/32 16/21/34 15/22/35
s off
f 15/22/36 16/21/37 18/23/38 17/24/39
s 1
f 17/24/40 18/23/41 20/25/42 19/26/43
s 3
f 21/27/44 22/28/45 23/29/46 24/30/47
s off
f 14/20/48 20/31/49 18/32/50 16/21/51
s 6
f 19/33/52 13/19/53 15/22/54 17/34/55
s 1
f 19/26/43 20/25/42 22/28/56 21/27/57
s 2
f 14/35/32 13/36/33 24/30/58 23/29/31
s 6
f 13/36/53 19/26/52 21/27/59 24/30/60
s 3
f 23/29/46 22/28/45 11/17/15 10/16/14
s 1
f 22/28/56 20/25/42 2/10/2 11/17/28
s off
f 14/35/61 8/8/62 2/10/63 20/25/64
g default
v 3.938201 0.353086 -18.500205
v 3.938201 0.353086 -18.286883
v 3.938201 3.008462 -18.500205
v 3.938201 3.008462 -18.286883
v 4.168336 3.008462 -18.500205
v 4.168336 3.008462 -18.286883
v 4.168336 0.353086 -18.500205
v 4.168336 0.353086 -18.286883
v 4.168336 0.176809 -18.500205
v 4.168336 0.176809 -18.286883
v 3.938201 0.176809 -18.286883
v 3.938201 0.176809 -18.500205
v 4.168336 0.353086 -11.851953
v 4.168336 0.353086 -12.065276
v 4.168336 3.008462 -11.851953
v 4.168336 3.008462 -12.065276
v 3.938201 3.008462 -11.851953
v 3.938201 3.008462 -12.065276
v 3.938201 0.353086 -11.851953
v 3.938201 0.353086 -12.065276
v 3.938201 0.176809 -11.851953
v 3.938201 0.176809 -12.065276
v 4.168336 0.176809 -12.065276
v 4.168336 0.176809 -11.851953
vt 0.375000 0.000000
vt 0.625000 0.000000
vt 0.375000 0.250000
vt 0.625000 0.250000
vt 0.375000 0.500000
vt 0.625000 0.500000
vt 0.375000 0.750000
vt 0.625000 0.750000
vt 0.375000 1.000000
vt 0.625000 1.000000
vt 0.875000 0.000000
vt 0.875000 0.250000
vt 0.125000 0.000000
vt 0.125000 0.250000
vt 0.375000 0.750000
vt 0.625000 0.750000
vt 0.625000 1.000000
vt 0.375000 1.000000
vt 0.375000 0.000000
vt 0.625000 0.000000
vt 0.625000 0.250000
vt 0.375000 0.250000
vt 0.625000 0.500000
vt 0.375000 0.500000
vt 0.625000 0.750000
vt 0.375000 0.750000
vt 0.375000 0.750000
vt 0.625000 0.750000
vt 0.625000 1.000000
vt 0.375000 1.000000
vt 0.875000 0.000000
vt 0.875000 0.250000
vt 0.125000 0.000000
vt 0.125000 0.250000
vt 0.625000 1.000000
vt 0.375000 1.000000
vn -1.000000 0.000000 0.000000
vn -1.000000 0.000000 0.000000
vn -1.000000 0.000000 0.000000
vn -1.000000 0.000000 0.000000
vn 0.000000 1.000000 0.000000
vn 0.000000 1.000000 0.000000
vn 0.000000 1.000000 0.000000
vn 0.000000 1.000000 0.000000
vn 1.000000 0.000000 0.000000
vn 1.000000 0.000000 0.000000
vn 1.000000 0.000000 0.000000
vn 1.000000 0.000000 0.000000
vn 0.000000 -1.000000 0.000000
vn 0.000000 -1.000000 0.000000
vn 0.000000 -1.000000 0.000000
vn 0.000000 -1.000000 0.000000
vn 0.000000 0.000000 1.000000
vn 0.000000 0.000000 1.000000
vn 0.000000 0.000000 1.000000
vn 0.000000 0.000000 1.000000
vn 0.000000 0.000000 -1.000000
vn 0.000000 0.000000 -1.000000
vn 0.000000 0.000000 -1.000000
vn 0.000000 0.000000 -1.000000
vn 1.000000 0.000000 0.000000
vn 1.000000 0.000000 0.000000
vn -1.000000 0.000000 0.000000
vn -1.000000 0.000000 0.000000
vn 0.000000 0.000000 -1.000000
vn 0.000000 0.000000 -1.000000
vn 1.000000 0.000000 0.000000
vn 1.000000 0.000000 0.000000
vn 1.000000 0.000000 0.000000
vn 1.000000 0.000000 0.000000
vn 1.000000 0.000000 0.000000
vn 0.000000 1.000000 0.000000
vn 0.000000 1.000000 0.000000
vn 0.000000 1.000000 0.000000
vn 0.000000 1.000000 0.000000
vn -1.000000 0.000000 0.000000
vn -1.000000 0.000000 0.000000
vn -1.000000 0.000000 0.000000
vn -1.000000 0.000000 0.000000
vn 0.000000 -1.000000 0.000000
vn 0.000000 -1.000000 0.000000
vn 0.000000 -1.000000 0.000000
vn 0.000000 -1.000000 0.000000
vn 0.000000 0.000000 -1.000000
vn 0.000000 0.000000 -1.000000
vn 0.000000 0.000000 -1.000000
vn 0.000000 0.000000 -1.000000
vn 0.000000 0.000000 1.000000
vn 0.000000 0.000000 1.000000
vn 0.000000 0.000000 1.000000
vn 0.000000 0.000000 1.000000
vn -1.000000 0.000000 0.000000
vn -1.000000 0.000000 0.000000
vn 1.000000 0.000000 0.000000
vn 0.000000 0.000000 1.000000
vn 0.000000 0.000000 1.000000
vn 0.000000 1.000000 0.000000
vn 0.000000 1.000000 0.000000
vn 0.000000 1.000000 0.000000
vn 0.000000 1.000000 0.000000
s 1
g pCube41
usemtl initialShadingGroup
f 25/37/65 26/38/66 28/40/67 27/39/68
s off
f 27/39/69 28/40/70 30/42/71 29/41/72
s 2
f 29/41/73 30/42/74 32/44/75 31/43/76
s 3
f 33/51/77 34/52/78 35/53/79 36/54/80
s off
f 26/38/81 32/47/82 30/48/83 28/40/84
s 4
f 31/49/85 25/37/86 27/39/87 29/50/88
s 2
f 31/43/76 32/44/75 34/52/89 33/51/90
s 1
f 26/46/66 25/45/65 36/54/91 35/53/92
s 4
f 25/45/86 31/43/85 33/51/93 36/54/94
s 2
f 47/65/95 34/52/89 32/44/75 38/71/96
f 37/55/97 38/56/96 40/57/98 39/58/99
s off
f 39/58/100 40/57/101 42/59/102 41/60/103
s 1
f 41/60/104 42/59/105 44/61/106 43/62/107
s 3
f 45/63/108 46/64/109 47/65/110 48/66/111
s off
f 38/56/112 44/67/113 42/68/114 40/57/115
s 6
f 43/69/116 37/55/117 39/58/118 41/70/119
s 1
f 43/62/107 44/61/106 46/64/120 45/63/121
s 2
f 38/71/96 37/72/97 48/66/122 47/65/95
s 6
f 37/72/117 43/62/116 45/63/123 48/66/124
s 3
f 47/65/110 46/64/109 35/53/79 34/52/78
s 1
f 46/64/120 44/61/106 26/46/66 35/53/92
s off
f 38/71/125 32/44/126 26/46/127 44/61/128
