# This file uses centimeters as units for non-parametric coordinates.

mtllib tafel poten.mtl
g default
v -7.441860 0.353086 -8.476702
v -7.241860 0.353086 -8.476702
v -7.441860 3.008462 -8.476702
v -7.241860 3.008462 -8.476702
v -7.441860 3.008462 -8.706837
v -7.241860 3.008462 -8.706837
v -7.441860 0.353086 -8.706837
v -7.241860 0.353086 -8.706837
v -7.441860 0.176809 -8.706837
v -7.241860 0.176809 -8.706837
v -7.241860 0.176809 -8.476702
v -7.441860 0.176809 -8.476702
v -4.794501 0.353086 -8.706837
v -4.794501 0.353086 -8.476702
v -4.794501 0.176809 -8.476702
v -4.794501 0.176809 -8.706837
vt 0.375000 0.000000
vt 0.625000 0.000000
vt 0.375000 0.250000
vt 0.625000 0.250000
vt 0.375000 0.500000
vt 0.625000 0.500000
vt 0.375000 0.750000
vt 0.625000 0.750000
vt 0.375000 1.000000
vt 0.625000 1.000000
vt 0.875000 0.000000
vt 0.875000 0.250000
vt 0.125000 0.000000
vt 0.125000 0.250000
vt 0.375000 0.750000
vt 0.625000 0.750000
vt 0.625000 1.000000
vt 0.375000 1.000000
vt 0.625000 0.750000
vt 0.625000 1.000000
vt 0.625000 1.000000
vt 0.625000 0.750000
vn 0.000000 0.000000 1.000000
vn 0.000000 0.000000 1.000000
vn 0.000000 0.000000 1.000000
vn 0.000000 0.000000 1.000000
vn 0.000000 1.000000 0.000000
vn 0.000000 1.000000 0.000000
vn 0.000000 1.000000 0.000000
vn 0.000000 1.000000 0.000000
vn 0.000000 0.000000 -1.000000
vn 0.000000 0.000000 -1.000000
vn 0.000000 0.000000 -1.000000
vn 0.000000 0.000000 -1.000000
vn 0.000000 -1.000000 0.000000
vn 0.000000 -1.000000 0.000000
vn 0.000000 -1.000000 0.000000
vn 0.000000 -1.000000 0.000000
vn 1.000000 0.000000 0.000000
vn 1.000000 0.000000 0.000000
vn 1.000000 0.000000 0.000000
vn 1.000000 0.000000 0.000000
vn -1.000000 0.000000 0.000000
vn -1.000000 0.000000 0.000000
vn -1.000000 0.000000 0.000000
vn -1.000000 0.000000 0.000000
vn 0.000000 0.000000 -1.000000
vn 0.000000 0.000000 -1.000000
vn 1.000000 0.000000 0.000000
vn 1.000000 0.000000 0.000000
vn 1.000000 0.000000 0.000000
vn 1.000000 0.000000 0.000000
vn 0.000000 0.000000 1.000000
vn 0.000000 0.000000 1.000000
vn -1.000000 0.000000 0.000000
vn -1.000000 0.000000 0.000000
vn 0.000000 1.000000 0.000000
vn 0.000000 1.000000 0.000000
vn 0.000000 1.000000 0.000000
vn 0.000000 1.000000 0.000000
vn 0.000000 0.000000 1.000000
vn 0.000000 0.000000 1.000000
vn 0.000000 -1.000000 0.000000
vn 0.000000 -1.000000 0.000000
vn 0.000000 0.000000 -1.000000
vn 0.000000 0.000000 -1.000000
s 1
g pCube14
usemtl initialShadingGroup
f 1/1/1 2/2/2 4/4/3 3/3/4
s off
f 3/3/5 4/4/6 6/6/7 5/5/8
s 2
f 5/5/9 6/6/10 8/8/11 7/7/12
s 3
f 9/15/13 10/16/14 11/17/15 12/18/16
s off
f 2/2/17 8/11/18 6/12/19 4/4/20
s 4
f 7/13/21 1/1/22 3/3/23 5/14/24
s 2
f 7/7/12 8/8/11 10/16/25 9/15/26
s off
f 13/19/27 14/20/28 15/21/29 16/22/30
s 1
f 2/10/2 1/9/1 12/18/31 11/17/32
s 4
f 1/9/22 7/7/21 9/15/33 12/18/34
s off
f 8/8/35 2/10/36 14/20/37 13/19/38
s 1
f 2/10/2 11/17/32 15/21/39 14/20/40
s 3
f 11/17/15 10/16/14 16/22/41 15/21/42
s 2
f 10/16/25 8/8/11 13/19/43 16/22/44
g default
v -7.441860 0.353086 -14.180755
v -7.241860 0.353086 -14.180755
v -7.441860 3.008462 -14.180755
v -7.241860 3.008462 -14.180755
v -7.441860 3.008462 -14.410889
v -7.241860 3.008462 -14.410889
v -7.441860 0.353086 -14.410889
v -7.241860 0.353086 -14.410889
v -7.441860 0.176809 -14.410889
v -7.241860 0.176809 -14.410889
v -7.241860 0.176809 -14.180755
v -7.441860 0.176809 -14.180755
v -4.794501 0.353086 -14.410889
v -4.794501 0.353086 -14.180755
v -4.794501 0.176809 -14.180755
v -4.794501 0.176809 -14.410889
vt 0.375000 0.000000
vt 0.625000 0.000000
vt 0.375000 0.250000
vt 0.625000 0.250000
vt 0.375000 0.500000
vt 0.625000 0.500000
vt 0.375000 0.750000
vt 0.625000 0.750000
vt 0.375000 1.000000
vt 0.625000 1.000000
vt 0.875000 0.000000
vt 0.875000 0.250000
vt 0.125000 0.000000
vt 0.125000 0.250000
vt 0.375000 0.750000
vt 0.625000 0.750000
vt 0.625000 1.000000
vt 0.375000 1.000000
vt 0.625000 0.750000
vt 0.625000 1.000000
vt 0.625000 1.000000
vt 0.625000 0.750000
vn 0.000000 0.000000 1.000000
vn 0.000000 0.000000 1.000000
vn 0.000000 0.000000 1.000000
vn 0.000000 0.000000 1.000000
vn 0.000000 1.000000 0.000000
vn 0.000000 1.000000 0.000000
vn 0.000000 1.000000 0.000000
vn 0.000000 1.000000 0.000000
vn 0.000000 0.000000 -1.000000
vn 0.000000 0.000000 -1.000000
vn 0.000000 0.000000 -1.000000
vn 0.000000 0.000000 -1.000000
vn 0.000000 -1.000000 0.000000
vn 0.000000 -1.000000 0.000000
vn 0.000000 -1.000000 0.000000
vn 0.000000 -1.000000 0.000000
vn 1.000000 0.000000 0.000000
vn 1.000000 0.000000 0.000000
vn 1.000000 0.000000 0.000000
vn 1.000000 0.000000 0.000000
vn -1.000000 0.000000 0.000000
vn -1.000000 0.000000 0.000000
vn -1.000000 0.000000 0.000000
vn -1.000000 0.000000 0.000000
vn 0.000000 0.000000 -1.000000
vn 0.000000 0.000000 -1.000000
vn 1.000000 0.000000 0.000000
vn 1.000000 0.000000 0.000000
vn 1.000000 0.000000 0.000000
vn 1.000000 0.000000 0.000000
vn 0.000000 0.000000 1.000000
vn 0.000000 0.000000 1.000000
vn -1.000000 0.000000 0.000000
vn -1.000000 0.000000 0.000000
vn 0.000000 1.000000 0.000000
vn 0.000000 1.000000 0.000000
vn 0.000000 1.000000 0.000000
vn 0.000000 1.000000 0.000000
vn 0.000000 0.000000 1.000000
vn 0.000000 0.000000 1.000000
vn 0.000000 -1.000000 0.000000
vn 0.000000 -1.000000 0.000000
vn 0.000000 0.000000 -1.000000
vn 0.000000 0.000000 -1.000000
s 1
g pCube20
usemtl initialShadingGroup
f 17/23/45 18/24/46 20/26/47 19/25/48
s off
f 19/25/49 20/26/50 22/28/51 21/27/52
s 2
f 21/27/53 22/28/54 24/30/55 23/29/56
s 3
f 25/37/57 26/38/58 27/39/59 28/40/60
s off
f 18/24/61 24/33/62 22/34/63 20/26/64
s 4
f 23/35/65 17/23/66 19/25/67 21/36/68
s 2
f 23/29/56 24/30/55 26/38/69 25/37/70
s off
f 29/41/71 30/42/72 31/43/73 32/44/74
s 1
f 18/32/46 17/31/45 28/40/75 27/39/76
s 4
f 17/31/66 23/29/65 25/37/77 28/40/78
s off
f 24/30/79 18/32/80 30/42/81 29/41/82
s 1
f 18/32/46 27/39/76 31/43/83 30/42/84
s 3
f 27/39/59 26/38/58 32/44/85 31/43/86
s 2
f 26/38/69 24/30/55 29/41/87 32/44/88
g default
v -7.441860 0.353086 -19.293264
v -7.241860 0.353086 -19.293264
v -7.441860 3.008462 -19.293264
v -7.241860 3.008462 -19.293264
v -7.441860 3.008462 -19.523399
v -7.241860 3.008462 -19.523399
v -7.441860 0.353086 -19.523399
v -7.241860 0.353086 -19.523399
v -7.441860 0.176809 -19.523399
v -7.241860 0.176809 -19.523399
v -7.241860 0.176809 -19.293264
v -7.441860 0.176809 -19.293264
v -4.794501 0.353086 -19.523399
v -4.794501 0.353086 -19.293264
v -4.794501 0.176809 -19.293264
v -4.794501 0.176809 -19.523399
vt 0.375000 0.000000
vt 0.625000 0.000000
vt 0.375000 0.250000
vt 0.625000 0.250000
vt 0.375000 0.500000
vt 0.625000 0.500000
vt 0.375000 0.750000
vt 0.625000 0.750000
vt 0.375000 1.000000
vt 0.625000 1.000000
vt 0.875000 0.000000
vt 0.875000 0.250000
vt 0.125000 0.000000
vt 0.125000 0.250000
vt 0.375000 0.750000
vt 0.625000 0.750000
vt 0.625000 1.000000
vt 0.375000 1.000000
vt 0.625000 0.750000
vt 0.625000 1.000000
vt 0.625000 1.000000
vt 0.625000 0.750000
vn 0.000000 0.000000 1.000000
vn 0.000000 0.000000 1.000000
vn 0.000000 0.000000 1.000000
vn 0.000000 0.000000 1.000000
vn 0.000000 1.000000 0.000000
vn 0.000000 1.000000 0.000000
vn 0.000000 1.000000 0.000000
vn 0.000000 1.000000 0.000000
vn 0.000000 0.000000 -1.000000
vn 0.000000 0.000000 -1.000000
vn 0.000000 0.000000 -1.000000
vn 0.000000 0.000000 -1.000000
vn 0.000000 -1.000000 0.000000
vn 0.000000 -1.000000 0.000000
vn 0.000000 -1.000000 0.000000
vn 0.000000 -1.000000 0.000000
vn 1.000000 0.000000 0.000000
vn 1.000000 0.000000 0.000000
vn 1.000000 0.000000 0.000000
vn 1.000000 0.000000 0.000000
vn -1.000000 0.000000 0.000000
vn -1.000000 0.000000 0.000000
vn -1.000000 0.000000 0.000000
vn -1.000000 0.000000 0.000000
vn 0.000000 0.000000 -1.000000
vn 0.000000 0.000000 -1.000000
vn 1.000000 0.000000 0.000000
vn 1.000000 0.000000 0.000000
vn 1.000000 0.000000 0.000000
vn 1.000000 0.000000 0.000000
vn 0.000000 0.000000 1.000000
vn 0.000000 0.000000 1.000000
vn -1.000000 0.000000 0.000000
vn -1.000000 0.000000 0.000000
vn 0.000000 1.000000 0.000000
vn 0.000000 1.000000 0.000000
vn 0.000000 1.000000 0.000000
vn 0.000000 1.000000 0.000000
vn 0.000000 0.000000 1.000000
vn 0.000000 0.000000 1.000000
vn 0.000000 -1.000000 0.000000
vn 0.000000 -1.000000 0.000000
vn 0.000000 0.000000 -1.000000
vn 0.000000 0.000000 -1.000000
s 1
g pCube13
usemtl initialShadingGroup
f 33/45/89 34/46/90 36/48/91 35/47/92
s off
f 35/47/93 36/48/94 38/50/95 37/49/96
s 2
f 37/49/97 38/50/98 40/52/99 39/51/100
s 3
f 41/59/101 42/60/102 43/61/103 44/62/104
s off
f 34/46/105 40/55/106 38/56/107 36/48/108
s 4
f 39/57/109 33/45/110 35/47/111 37/58/112
s 2
f 39/51/100 40/52/99 42/60/113 41/59/114
s off
f 45/63/115 46/64/116 47/65/117 48/66/118
s 1
f 34/54/90 33/53/89 44/62/119 43/61/120
s 4
f 33/53/110 39/51/109 41/59/121 44/62/122
s off
f 40/52/123 34/54/124 46/64/125 45/63/126
s 1
f 34/54/90 43/61/120 47/65/127 46/64/128
s 3
f 43/61/103 42/60/102 48/66/129 47/65/130
s 2
f 42/60/113 40/52/99 45/63/131 48/66/132
