# This file uses centimeters as units for non-parametric coordinates.

mtllib tafel top.mtl
g default
v -7.284487 2.945377 -19.523917
v -4.805101 2.945377 -19.523917
v -4.805101 0.701987 -19.523917
v -7.284487 0.701987 -19.523917
v -7.284488 0.701987 -8.476845
v -7.284488 2.945377 -8.476845
v -7.284487 2.945377 -19.750804
v -4.805101 2.945377 -19.750804
v -4.804987 2.525888 -19.401105
v -4.804987 0.706249 -19.401105
v -7.082250 0.706249 -19.401105
v -7.082250 2.525888 -8.475506
v -7.441976 2.945377 -8.476845
v -7.441975 2.945377 -19.523917
v -4.648963 2.945377 -8.249956
v -4.805101 2.945377 -8.249956
v -4.805101 2.945377 -8.476845
v -4.648963 2.945377 -19.750804
v -7.441975 2.945377 -19.750804
v -7.284487 3.008741 -19.750804
v -4.805101 3.008741 -19.750804
v -4.804987 2.525888 -8.475506
v -7.082250 2.525888 -19.401105
v -7.082250 0.702083 -8.476722
v -7.284488 2.945377 -8.249956
v -7.441976 2.945377 -8.249956
v -7.441976 3.008741 -8.476845
v -7.441975 3.008741 -19.523917
v -4.648963 3.008741 -8.249956
v -4.648963 3.008741 -19.750804
v -4.805101 3.008741 -8.249956
v -7.441975 3.008741 -19.750804
v -7.284487 3.008741 -19.523917
v -6.804138 3.008741 -19.244927
v -5.186284 3.008741 -19.244927
v -6.546314 2.525888 -18.578794
v -6.579247 2.525888 -18.573577
v -6.608955 2.525888 -18.558440
v -6.632532 2.525888 -18.534863
v -6.647669 2.525888 -18.505155
v -6.652885 2.525888 -18.472222
v -6.647669 2.525888 -18.439290
v -6.632532 2.525888 -18.409581
v -6.608955 2.525888 -18.386004
v -6.579247 2.525888 -18.370868
v -6.546314 2.525888 -18.365651
v -6.513382 2.525888 -18.370868
v -6.483674 2.525888 -18.386004
v -6.460097 2.525888 -18.409581
v -6.444960 2.525888 -18.439290
v -6.439744 2.525888 -18.472222
v -6.444960 2.525888 -18.505155
v -6.460097 2.525888 -18.534863
v -6.483674 2.525888 -18.558440
v -6.513382 2.525888 -18.573577
v -7.284488 3.008741 -8.249956
v -7.441976 3.008741 -8.249956
v -7.284488 3.008741 -8.476845
v -5.186284 3.008741 -17.627074
v -6.804138 3.008741 -17.627074
v -6.804138 2.688157 -19.244927
v -5.186284 2.688157 -19.244927
v -5.186284 2.688157 -17.627074
v -6.804138 2.688157 -17.627074
v -6.696841 2.580861 -19.137633
v -5.293580 2.580861 -19.137633
v -5.293580 2.580861 -17.734368
v -6.696841 2.580861 -17.734368
v -6.546314 2.580861 -18.578794
v -6.513382 2.580861 -18.573577
v -6.483674 2.580861 -18.558440
v -6.460097 2.580861 -18.534863
v -6.444960 2.580861 -18.505155
v -6.439744 2.580861 -18.472222
v -6.444960 2.580861 -18.439290
v -6.460097 2.580861 -18.409581
v -6.483674 2.580861 -18.386004
v -6.513382 2.580861 -18.370868
v -6.546314 2.580861 -18.365651
v -6.579247 2.580861 -18.370868
v -6.608955 2.580861 -18.386004
v -6.632532 2.580861 -18.409581
v -6.647669 2.580861 -18.439290
v -6.652885 2.580861 -18.472222
v -6.647669 2.580861 -18.505155
v -6.632532 2.580861 -18.534863
v -6.608955 2.580861 -18.558440
v -6.579247 2.580861 -18.573577
vt 0.375000 0.500000
vt 0.625000 0.500000
vt 0.750000 0.375000
vt 0.250000 0.375000
vt 0.375000 0.000000
vt 0.375000 0.250000
vt 0.125000 0.250000
vt 0.375000 0.500000
vt 0.625000 0.500000
vt 0.875000 0.250000
vt 0.875000 0.250000
vt 0.875000 0.000000
vt 0.875000 0.000000
vt 0.625000 0.250000
vt 0.375000 0.250000
vt 0.375000 0.500000
vt 0.625000 0.250000
vt 0.625000 0.250000
vt 0.625000 0.250000
vt 0.625000 0.500000
vt 0.375000 0.500000
vt 0.375000 0.500000
vt 0.625000 0.500000
vt 0.625000 0.250000
vt 0.875000 0.250000
vt 0.625000 0.000000
vt 0.375000 0.250000
vt 0.375000 0.250000
vt 0.375000 0.250000
vt 0.375000 0.500000
vt 0.625000 0.250000
vt 0.625000 0.500000
vt 0.625000 0.250000
vt 0.375000 0.500000
vt 0.375000 0.500000
vt 0.423434 0.491027
vt 0.586565 0.489228
vt 0.856184 0.250000
vt 0.856064 0.250000
vt 0.855718 0.250000
vt 0.855179 0.250000
vt 0.854499 0.250000
vt 0.853745 0.250000
vt 0.852992 0.250000
vt 0.852312 0.250000
vt 0.851772 0.250000
vt 0.851426 0.250000
vt 0.851307 0.250000
vt 0.851426 0.250000
vt 0.851772 0.250000
vt 0.852312 0.250000
vt 0.852992 0.250000
vt 0.853745 0.250000
vt 0.854499 0.250000
vt 0.855179 0.250000
vt 0.855718 0.250000
vt 0.856064 0.250000
vt 0.375000 0.250000
vt 0.375000 0.250000
vt 0.375000 0.250000
vt 0.586565 0.454165
vt 0.423434 0.456258
vt 0.625000 0.685531
vt 0.375000 0.685531
vt 0.375000 0.723176
vt 0.625000 0.723176
vt 0.625000 0.064469
vt 0.875000 0.064469
vt 0.875000 0.026824
vt 0.625000 0.026824
vt 0.375000 0.064469
vt 0.375000 0.026824
vt 0.125000 0.064469
vt 0.125000 0.026824
vt 0.391580 0.766580
vt 0.608420 0.766580
vt 0.625000 1.000000
vt 0.608420 0.983420
vt 0.608420 0.000000
vt 0.391580 0.000000
vt 0.391580 0.983420
vt 0.375000 1.000000
vt 0.414840 0.852935
vt 0.419929 0.853741
vt 0.424520 0.856080
vt 0.428163 0.859723
vt 0.430502 0.864314
vt 0.431308 0.869403
vt 0.430502 0.874492
vt 0.428163 0.879083
vt 0.424520 0.882726
vt 0.419929 0.885065
vt 0.414840 0.885871
vt 0.409751 0.885065
vt 0.405161 0.882726
vt 0.401517 0.879083
vt 0.399178 0.874492
vt 0.398372 0.869403
vt 0.399178 0.864314
vt 0.401517 0.859723
vt 0.405161 0.856080
vt 0.409751 0.853741
vt 0.387500 0.375578
vt 0.375000 0.375578
vt 0.375000 0.472539
vt 0.387500 0.472539
vt 0.400000 0.375578
vt 0.400000 0.472539
vt 0.625000 0.375578
vt 0.612500 0.375578
vt 0.612500 0.472539
vt 0.625000 0.472539
vt 0.412500 0.375578
vt 0.412500 0.472539
vt 0.600000 0.375578
vt 0.600000 0.472539
vt 0.425000 0.375578
vt 0.425000 0.472539
vt 0.587500 0.375578
vt 0.587500 0.472539
vt 0.437500 0.375578
vt 0.437500 0.472539
vt 0.575000 0.375578
vt 0.575000 0.472539
vt 0.450000 0.375578
vt 0.450000 0.472539
vt 0.562500 0.375578
vt 0.562500 0.472539
vt 0.462500 0.375578
vt 0.462500 0.472539
vt 0.550000 0.375578
vt 0.550000 0.472539
vt 0.475000 0.375578
vt 0.475000 0.472539
vt 0.537500 0.375578
vt 0.537500 0.472539
vt 0.487500 0.375578
vt 0.487500 0.472539
vt 0.525000 0.375578
vt 0.525000 0.472539
vt 0.500000 0.375578
vt 0.500000 0.472539
vt 0.512500 0.375578
vt 0.512500 0.472539
vn 0.000000 0.000000 -1.000000
vn 0.000000 0.000000 -1.000000
vn 0.000000 0.000000 -1.000000
vn 0.000000 0.000000 -1.000000
vn -1.000000 0.000000 -0.000000
vn -1.000000 0.000000 -0.000000
vn -1.000000 0.000000 -0.000000
vn -1.000000 0.000000 -0.000000
vn 0.000000 -1.000000 0.000000
vn 0.000000 -1.000000 0.000000
vn 0.000000 -1.000000 0.000000
vn 0.000000 -1.000000 0.000000
vn 1.000000 0.000000 -0.000928
vn 1.000000 0.000000 -0.000928
vn 1.000000 0.000000 -0.000928
vn 1.000000 0.000000 -0.000928
vn 0.000000 -0.999399 0.034681
vn 0.000000 -0.999398 0.034681
vn 0.000000 -0.999399 0.034681
vn 0.000000 -0.999398 0.034681
vn 0.010832 -0.999941 -0.000190
vn 0.010832 -0.999941 -0.000190
vn 0.010832 -0.999941 -0.000190
vn 0.010832 -0.999941 -0.000190
vn -0.003928 -0.000299 0.999992
vn -0.003928 -0.000299 0.999992
vn -0.003928 -0.000299 0.999992
vn -0.003928 -0.000299 0.999992
vn 0.000000 -1.000000 0.000000
vn 0.000000 -1.000000 0.000000
vn 0.000000 -1.000000 0.000000
vn 0.000000 -1.000000 0.000000
vn 0.000000 -1.000000 0.000000
vn 0.000000 -1.000000 0.000000
vn 0.000000 -1.000000 0.000000
vn 0.000000 -1.000000 0.000000
vn 0.000000 0.000000 -1.000000
vn 0.000000 0.000000 -1.000000
vn 0.000000 0.000000 -1.000000
vn 0.000000 0.000000 -1.000000
vn 1.000000 0.000271 0.000000
vn 1.000000 0.000271 0.000000
vn 1.000000 0.000271 0.000000
vn 1.000000 0.000271 0.000000
vn 0.000000 0.000000 1.000000
vn 0.000000 0.000000 1.000000
vn 0.000000 0.000000 1.000000
vn 0.000000 0.000000 1.000000
vn 0.000000 0.003192 0.999995
vn 0.000000 0.003192 0.999995
vn 0.000000 0.003192 0.999995
vn 0.000000 0.003192 0.999995
vn 0.000000 -1.000000 0.000000
vn 0.000000 -1.000000 0.000000
vn -1.000000 0.000000 -0.000000
vn -1.000000 0.000000 -0.000000
vn -1.000000 0.000000 -0.000000
vn -1.000000 0.000000 -0.000000
vn 1.000000 0.000000 0.000000
vn 1.000000 0.000000 0.000000
vn 1.000000 0.000000 0.000000
vn 1.000000 0.000000 0.000000
vn 0.000000 0.000000 1.000000
vn 0.000000 0.000000 1.000000
vn 0.000000 0.000000 1.000000
vn 0.000000 0.000000 1.000000
vn 0.000000 0.000000 -1.000000
vn 0.000000 0.000000 -1.000000
vn 0.000000 0.000000 -1.000000
vn 0.000000 0.000000 -1.000000
vn -1.000000 0.000000 0.000000
vn -1.000000 0.000000 0.000000
vn 0.000000 1.000000 -0.000000
vn 0.000000 1.000000 -0.000000
vn 0.000000 1.000000 -0.000000
vn 0.000000 1.000000 -0.000000
vn 0.000000 1.000000 -0.000000
vn 0.000000 1.000000 -0.000000
vn 0.000000 -1.000000 0.000000
vn 0.000000 -1.000000 0.000000
vn 0.000000 -1.000000 0.000000
vn 0.000000 -1.000000 0.000000
vn 0.000000 -1.000000 0.000000
vn 0.000000 -1.000000 0.000000
vn 0.000000 -1.000000 0.000000
vn 0.000000 -1.000000 0.000000
vn 0.000000 -1.000000 0.000000
vn 0.000000 -1.000000 0.000000
vn 0.000000 -1.000000 0.000000
vn 0.000000 -1.000000 0.000000
vn 0.000000 -1.000000 0.000000
vn 0.000000 -1.000000 0.000000
vn 0.000000 -1.000000 0.000000
vn 0.000000 -1.000000 0.000000
vn 0.000000 -1.000000 0.000000
vn 0.000000 -1.000000 0.000000
vn 0.000000 -1.000000 0.000000
vn 0.000000 -1.000000 0.000000
vn 0.000000 -1.000000 0.000000
vn 0.000000 -1.000000 0.000000
vn 0.000000 -1.000000 0.000000
vn 0.000000 -1.000000 0.000000
vn 1.000000 0.000000 0.000000
vn 1.000000 0.000000 0.000000
vn 1.000000 0.000000 0.000000
vn 1.000000 0.000000 0.000000
vn 0.000000 0.000000 1.000000
vn 0.000000 0.000000 1.000000
vn 0.000000 0.000000 1.000000
vn 0.000000 0.000000 1.000000
vn -1.000000 0.000000 0.000000
vn -1.000000 0.000000 0.000000
vn 0.000000 1.000000 0.000000
vn 0.000000 1.000000 0.000000
vn 0.000000 1.000000 0.000000
vn 0.000000 1.000000 0.000000
vn 0.000000 1.000000 0.000000
vn 0.000000 1.000000 0.000000
vn 0.000000 1.000000 0.000000
vn 0.000000 1.000000 0.000000
vn 0.000000 1.000000 0.000000
vn 0.000000 0.000000 1.000000
vn 0.000000 0.000000 1.000000
vn 0.000000 0.157697 0.987488
vn 0.000000 0.157697 0.987488
vn 0.000000 1.000000 0.000000
vn -1.000000 0.000000 0.000000
vn -1.000000 0.000000 0.000000
vn -0.987487 0.157702 0.000000
vn -0.987487 0.157702 0.000000
vn 0.707106 0.000000 -0.707107
vn 0.000000 0.000000 -1.000000
vn 0.000000 0.157697 -0.987488
vn 0.689736 0.220299 -0.689734
vn 1.000000 0.000000 0.000000
vn 0.987487 0.157703 0.000000
vn 0.111817 0.987418 0.111819
vn -0.097938 0.990362 0.097939
vn -0.097938 0.990362 -0.097939
vn 0.110098 0.987804 -0.110099
vn 0.000000 1.000000 0.000000
vn 0.000000 1.000000 0.000000
vn 0.000000 1.000000 0.000000
vn 0.000000 1.000000 0.000000
vn 0.000000 1.000000 0.000000
vn 0.000000 1.000000 0.000000
vn 0.000000 1.000000 0.000000
vn 0.000000 1.000000 0.000000
vn 0.000000 1.000000 0.000000
vn 0.000000 1.000000 0.000000
vn 0.000000 1.000000 0.000000
vn 0.000000 1.000000 0.000000
vn 0.000000 1.000000 0.000000
vn 0.000000 1.000000 0.000000
vn 0.000000 1.000000 0.000000
vn 0.000000 1.000000 0.000000
vn 0.000000 1.000000 0.000000
vn 0.000000 1.000000 0.000000
vn 0.000000 1.000000 0.000000
vn 0.000000 1.000000 0.000000
vn -0.809014 0.000000 0.587789
vn -0.951058 0.000000 0.309014
vn -0.951058 0.000000 0.309014
vn -0.809014 0.000000 0.587789
vn -0.587769 0.000000 0.809029
vn -0.587769 0.000000 0.809029
vn -1.000000 0.000000 0.000000
vn -1.000000 0.000000 0.000000
vn -0.309024 0.000000 0.951054
vn -0.309024 0.000000 0.951054
vn -0.951058 0.000000 -0.309014
vn -0.951058 0.000000 -0.309014
vn 0.000000 0.000000 1.000000
vn 0.000000 0.000000 1.000000
vn -0.809014 0.000000 -0.587789
vn -0.809014 0.000000 -0.587789
vn 0.309024 0.000000 0.951054
vn 0.309024 0.000000 0.951054
vn -0.587769 0.000000 -0.809029
vn -0.587769 0.000000 -0.809029
vn 0.587769 0.000000 0.809029
vn 0.587769 0.000000 0.809029
vn -0.309024 0.000000 -0.951054
vn -0.309024 0.000000 -0.951054
vn 0.809014 0.000000 0.587789
vn 0.809014 0.000000 0.587789
vn 0.000000 0.000000 -1.000000
vn 0.000000 0.000000 -1.000000
vn 0.951058 0.000000 0.309014
vn 0.951058 0.000000 0.309014
vn 0.309024 0.000000 -0.951054
vn 0.309024 0.000000 -0.951054
vn 1.000000 0.000000 0.000000
vn 1.000000 0.000000 0.000000
vn 0.587769 0.000000 -0.809029
vn 0.587769 0.000000 -0.809029
vn 0.951058 0.000000 -0.309014
vn 0.951058 0.000000 -0.309014
vn 0.809014 0.000000 -0.587789
vn 0.809014 0.000000 -0.587789
s off
g pCube35
usemtl initialShadingGroup
f 1/1/1 2/2/2 3/3/3 4/4/4
f 4/4/5 5/5/6 6/6/7 1/7/8
s 1
f 2/2/9 1/1/10 7/8/11 8/9/12
s off
f 3/3/13 2/10/14 9/11/15 10/12/16
f 4/4/17 3/3/18 10/12/19 11/13/20
f 5/5/21 4/4/22 11/13/23 24/26/24
f 12/14/25 6/6/26 5/5/27 24/26/28
s 1
f 1/1/10 6/6/29 13/15/30 14/16/31
f 15/17/32 16/18/33 17/19/34 2/2/9 8/9/12 18/20/35
f 7/8/11 1/1/10 14/16/31 19/21/36
s 3
f 8/9/37 7/8/38 20/22/39 21/23/40
s off
f 2/10/41 17/19/42 22/24/43 9/11/44
f 10/12/45 9/11/46 23/25/47 11/13/48
f 17/19/49 6/6/50 12/14/51 22/24/52
s 1
f 6/6/29 25/27/53 26/28/54 13/15/30
s 4
f 14/16/55 13/15/56 27/29/57 28/30/58
s off
f 29/31/59 15/17/60 18/20/61 30/32/62
s 5
f 31/33/63 16/18/64 15/17/65 29/31/66
s 1
f 6/6/29 17/19/34 16/18/33 25/27/53
s 3
f 8/9/37 21/23/40 30/32/67 18/20/68
f 20/22/39 7/8/38 19/21/69 32/34/70
s 4
f 14/16/55 28/30/58 32/34/71 19/21/72
s 6
f 31/33/73 21/23/74 20/22/75 33/35/76 34/36/77 35/37/78
s 7
f 22/24/79 12/14/80 23/25/81 36/38/82 37/39/83 38/40/84 39/41/85 40/42/86 41/43/87 42/44/88 43/45/89 44/46/90 45/47/91 46/48/92 47/49/93
f 9/11/94 22/24/79 47/49/93 48/50/95 49/51/96 50/52/97 51/53/98 52/54/99 53/55/100 54/56/101 55/57/102 36/38/82 23/25/81
s off
f 24/26/103 11/13/104 23/25/105 12/14/106
s 5
f 25/27/107 56/58/108 57/59/109 26/28/110
s 4
f 27/29/57 13/15/56 26/28/111 57/59/112
s 6
f 58/60/113 33/35/76 28/30/114 27/29/115
f 29/31/116 30/32/117 21/23/74 31/33/73
s 5
f 25/27/107 16/18/64 31/33/63 56/58/108
s 6
f 33/35/76 20/22/75 32/34/118 28/30/114
f 31/33/73 35/37/78 59/61/119 60/62/120 34/36/77 33/35/76 58/60/113 56/58/121
s 8
f 35/63/122 34/64/123 61/65/124 62/66/125
s 6
f 56/58/121 58/60/113 27/29/115 57/59/126
s 8
f 59/67/127 35/68/128 62/69/129 63/70/130
f 60/71/131 59/67/132 63/70/133 64/72/134
f 34/73/135 60/71/131 64/72/134 61/74/136
f 65/75/137 66/76/138 62/66/125 61/65/124
f 63/77/130 62/66/129 66/76/138 67/78/139
f 64/72/134 63/70/133 67/79/139 68/80/140
f 68/81/140 65/75/137 61/65/136 64/82/134
f 65/75/137 69/83/141 70/84/142 71/85/143 72/86/144 73/87/145 74/88/146 75/89/147 76/90/148 77/91/149 78/92/150 79/93/151 68/81/140 67/78/139 66/76/138
f 79/93/151 80/94/152 81/95/153 82/96/154 83/97/155 84/98/156 85/99/157 86/100/158 87/101/159 88/102/160 69/83/141 65/75/137 68/81/140
s 11
f 53/103/161 52/104/162 73/105/163 72/106/164
f 54/107/165 53/103/161 72/106/164 71/108/166
f 52/109/162 51/110/167 74/111/168 73/112/163
f 55/113/169 54/107/165 71/108/166 70/114/170
f 51/110/167 50/115/171 75/116/172 74/111/168
f 36/117/173 55/113/169 70/114/170 69/118/174
f 50/115/171 49/119/175 76/120/176 75/116/172
f 37/121/177 36/117/173 69/118/174 88/122/178
f 49/119/175 48/123/179 77/124/180 76/120/176
f 38/125/181 37/121/177 88/122/178 87/126/182
f 48/123/179 47/127/183 78/128/184 77/124/180
f 39/129/185 38/125/181 87/126/182 86/130/186
f 47/127/183 46/131/187 79/132/188 78/128/184
f 40/133/189 39/129/185 86/130/186 85/134/190
f 46/131/187 45/135/191 80/136/192 79/132/188
f 41/137/193 40/133/189 85/134/190 84/138/194
f 45/135/191 44/139/195 81/140/196 80/136/192
f 42/141/197 41/137/193 84/138/194 83/142/198
f 44/139/195 43/143/199 82/144/200 81/140/196
f 43/143/199 42/141/197 83/142/198 82/144/200
