# This file uses centimeters as units for non-parametric coordinates.

mtllib tafel poten.mtl
g default
v -7.441860 0.353086 -19.293264
v -7.241860 0.353086 -19.293264
v -7.441860 3.008462 -19.293264
v -7.241860 3.008462 -19.293264
v -7.441860 3.008462 -19.523399
v -7.241860 3.008462 -19.523399
v -7.441860 0.353086 -19.523399
v -7.241860 0.353086 -19.523399
v -7.441860 0.176809 -19.523399
v -7.241860 0.176809 -19.523399
v -7.241860 0.176809 -19.293264
v -7.441860 0.176809 -19.293264
v -4.794501 0.353086 -19.523399
v -4.794501 0.353086 -19.293264
v -4.794501 0.176809 -19.293264
v -4.794501 0.176809 -19.523399
vt 0.689638 0.001992
vt 0.764884 0.001992
vt 0.764884 0.201798
vt 0.689638 0.201798
vt 0.607111 0.015256
vt 0.682357 0.015256
vt 0.682357 0.215063
vt 0.607111 0.215063
vt 0.607111 0.001992
vt 0.682357 0.001992
vt 0.867955 0.001992
vt 0.867955 0.077238
vt 0.854691 0.077238
vt 0.854691 0.001992
vt 0.772165 0.077238
vt 0.772165 0.001992
vt 0.847411 0.001992
vt 0.847411 0.077238
vt 0.442058 0.998008
vt 0.442058 0.922762
vt 0.517304 0.922762
vt 0.517304 0.998008
vt 0.442058 0.001992
vt 0.517304 0.001992
vt 0.599831 0.922762
vt 0.524585 0.922762
vt 0.524585 0.001992
vt 0.599831 0.001992
vt 0.014997 0.998008
vt 0.014997 0.922762
vt 0.214803 0.922762
vt 0.214803 0.998008
vt 0.001732 0.998008
vt 0.001732 0.922762
vt 0.001732 0.001992
vt 0.014997 0.001992
vt 0.221987 0.998008
vt 0.221987 0.922762
vt 0.421793 0.922762
vt 0.421793 0.998008
vt 0.435058 0.922762
vt 0.435058 0.998008
vt 0.421793 0.001992
vt 0.435058 0.001992
vn 0.000000 0.000000 1.000000
vn 0.000000 0.000000 1.000000
vn 0.000000 0.000000 1.000000
vn 0.000000 0.000000 1.000000
vn 0.000000 1.000000 0.000000
vn 0.000000 1.000000 0.000000
vn 0.000000 1.000000 0.000000
vn 0.000000 1.000000 0.000000
vn 0.000000 0.000000 -1.000000
vn 0.000000 0.000000 -1.000000
vn 0.000000 0.000000 -1.000000
vn 0.000000 0.000000 -1.000000
vn 0.000000 -1.000000 0.000000
vn 0.000000 -1.000000 0.000000
vn 0.000000 -1.000000 0.000000
vn 0.000000 -1.000000 0.000000
vn 1.000000 0.000000 0.000000
vn 1.000000 0.000000 0.000000
vn 1.000000 0.000000 0.000000
vn 1.000000 0.000000 0.000000
vn -1.000000 0.000000 0.000000
vn -1.000000 0.000000 0.000000
vn -1.000000 0.000000 0.000000
vn -1.000000 0.000000 0.000000
vn 0.000000 0.000000 -1.000000
vn 0.000000 0.000000 -1.000000
vn 1.000000 0.000000 0.000000
vn 1.000000 0.000000 0.000000
vn 1.000000 0.000000 0.000000
vn 1.000000 0.000000 0.000000
vn 0.000000 0.000000 1.000000
vn 0.000000 0.000000 1.000000
vn -1.000000 0.000000 0.000000
vn -1.000000 0.000000 0.000000
vn 0.000000 1.000000 0.000000
vn 0.000000 1.000000 0.000000
vn 0.000000 1.000000 0.000000
vn 0.000000 1.000000 0.000000
vn 0.000000 0.000000 1.000000
vn 0.000000 0.000000 1.000000
vn 0.000000 -1.000000 0.000000
vn 0.000000 -1.000000 0.000000
vn 0.000000 0.000000 -1.000000
vn 0.000000 0.000000 -1.000000
s 1
g pCube13
usemtl initialShadingGroup
f 1/29/1 2/30/2 4/31/3 3/32/4
s off
f 3/15/5 4/16/6 6/17/7 5/18/8
s 2
f 5/37/9 6/38/10 8/39/11 7/40/12
s 3
f 9/19/13 10/20/14 11/21/15 12/22/16
s off
f 2/1/17 8/2/18 6/3/19 4/4/20
s 4
f 7/5/21 1/6/22 3/7/23 5/8/24
s 2
f 7/40/12 8/39/11 10/41/25 9/42/26
s off
f 13/11/27 14/12/28 15/13/29 16/14/30
s 1
f 2/30/2 1/29/1 12/33/31 11/34/32
s 4
f 1/6/22 7/5/21 9/9/33 12/10/34
s off
f 8/25/35 2/26/36 14/27/37 13/28/38
s 1
f 2/30/2 11/34/32 15/35/39 14/36/40
s 3
f 11/21/15 10/20/14 16/23/41 15/24/42
s 2
f 10/41/25 8/39/11 13/43/43 16/44/44
g default
v -7.441860 0.353086 -14.180755
v -7.241860 0.353086 -14.180755
v -7.441860 3.008462 -14.180755
v -7.241860 3.008462 -14.180755
v -7.441860 3.008462 -14.410889
v -7.241860 3.008462 -14.410889
v -7.441860 0.353086 -14.410889
v -7.241860 0.353086 -14.410889
v -7.441860 0.176809 -14.410889
v -7.241860 0.176809 -14.410889
v -7.241860 0.176809 -14.180755
v -7.441860 0.176809 -14.180755
v -4.794501 0.353086 -14.410889
v -4.794501 0.353086 -14.180755
v -4.794501 0.176809 -14.180755
v -4.794501 0.176809 -14.410889
vt 0.689638 0.001992
vt 0.764884 0.001992
vt 0.764884 0.201798
vt 0.689638 0.201798
vt 0.607111 0.015256
vt 0.682357 0.015256
vt 0.682357 0.215063
vt 0.607111 0.215063
vt 0.607111 0.001992
vt 0.682357 0.001992
vt 0.867955 0.001992
vt 0.867955 0.077238
vt 0.854691 0.077238
vt 0.854691 0.001992
vt 0.772165 0.077238
vt 0.772165 0.001992
vt 0.847411 0.001992
vt 0.847411 0.077238
vt 0.442058 0.998008
vt 0.442058 0.922762
vt 0.517304 0.922762
vt 0.517304 0.998008
vt 0.442058 0.001992
vt 0.517304 0.001992
vt 0.599831 0.922762
vt 0.524585 0.922762
vt 0.524585 0.001992
vt 0.599831 0.001992
vt 0.014997 0.998008
vt 0.014997 0.922762
vt 0.214803 0.922762
vt 0.214803 0.998008
vt 0.001732 0.998008
vt 0.001732 0.922762
vt 0.001732 0.001992
vt 0.014997 0.001992
vt 0.221987 0.998008
vt 0.221987 0.922762
vt 0.421793 0.922762
vt 0.421793 0.998008
vt 0.435058 0.922762
vt 0.435058 0.998008
vt 0.421793 0.001992
vt 0.435058 0.001992
vn 0.000000 0.000000 1.000000
vn 0.000000 0.000000 1.000000
vn 0.000000 0.000000 1.000000
vn 0.000000 0.000000 1.000000
vn 0.000000 1.000000 0.000000
vn 0.000000 1.000000 0.000000
vn 0.000000 1.000000 0.000000
vn 0.000000 1.000000 0.000000
vn 0.000000 0.000000 -1.000000
vn 0.000000 0.000000 -1.000000
vn 0.000000 0.000000 -1.000000
vn 0.000000 0.000000 -1.000000
vn 0.000000 -1.000000 0.000000
vn 0.000000 -1.000000 0.000000
vn 0.000000 -1.000000 0.000000
vn 0.000000 -1.000000 0.000000
vn 1.000000 0.000000 0.000000
vn 1.000000 0.000000 0.000000
vn 1.000000 0.000000 0.000000
vn 1.000000 0.000000 0.000000
vn -1.000000 0.000000 0.000000
vn -1.000000 0.000000 0.000000
vn -1.000000 0.000000 0.000000
vn -1.000000 0.000000 0.000000
vn 0.000000 0.000000 -1.000000
vn 0.000000 0.000000 -1.000000
vn 1.000000 0.000000 0.000000
vn 1.000000 0.000000 0.000000
vn 1.000000 0.000000 0.000000
vn 1.000000 0.000000 0.000000
vn 0.000000 0.000000 1.000000
vn 0.000000 0.000000 1.000000
vn -1.000000 0.000000 0.000000
vn -1.000000 0.000000 0.000000
vn 0.000000 1.000000 0.000000
vn 0.000000 1.000000 0.000000
vn 0.000000 1.000000 0.000000
vn 0.000000 1.000000 0.000000
vn 0.000000 0.000000 1.000000
vn 0.000000 0.000000 1.000000
vn 0.000000 -1.000000 0.000000
vn 0.000000 -1.000000 0.000000
vn 0.000000 0.000000 -1.000000
vn 0.000000 0.000000 -1.000000
s 1
g pCube20
usemtl initialShadingGroup
f 17/73/45 18/74/46 20/75/47 19/76/48
s off
f 19/59/49 20/60/50 22/61/51 21/62/52
s 2
f 21/81/53 22/82/54 24/83/55 23/84/56
s 3
f 25/63/57 26/64/58 27/65/59 28/66/60
s off
f 18/45/61 24/46/62 22/47/63 20/48/64
s 4
f 23/49/65 17/50/66 19/51/67 21/52/68
s 2
f 23/84/56 24/83/55 26/85/69 25/86/70
s off
f 29/55/71 30/56/72 31/57/73 32/58/74
s 1
f 18/74/46 17/73/45 28/77/75 27/78/76
s 4
f 17/50/66 23/49/65 25/53/77 28/54/78
s off
f 24/69/79 18/70/80 30/71/81 29/72/82
s 1
f 18/74/46 27/78/76 31/79/83 30/80/84
s 3
f 27/65/59 26/64/58 32/67/85 31/68/86
s 2
f 26/85/69 24/83/55 29/87/87 32/88/88
g default
v -7.441860 0.353086 -8.476702
v -7.241860 0.353086 -8.476702
v -7.441860 3.008462 -8.476702
v -7.241860 3.008462 -8.476702
v -7.441860 3.008462 -8.706837
v -7.241860 3.008462 -8.706837
v -7.441860 0.353086 -8.706837
v -7.241860 0.353086 -8.706837
v -7.441860 0.176809 -8.706837
v -7.241860 0.176809 -8.706837
v -7.241860 0.176809 -8.476702
v -7.441860 0.176809 -8.476702
v -4.794501 0.353086 -8.706837
v -4.794501 0.353086 -8.476702
v -4.794501 0.176809 -8.476702
v -4.794501 0.176809 -8.706837
vt 0.689638 0.001992
vt 0.764884 0.001992
vt 0.764884 0.201798
vt 0.689638 0.201798
vt 0.607111 0.015256
vt 0.682357 0.015256
vt 0.682357 0.215063
vt 0.607111 0.215063
vt 0.607111 0.001992
vt 0.682357 0.001992
vt 0.867955 0.001992
vt 0.867955 0.077238
vt 0.854691 0.077238
vt 0.854691 0.001992
vt 0.772165 0.077238
vt 0.772165 0.001992
vt 0.847411 0.001992
vt 0.847411 0.077238
vt 0.442058 0.998008
vt 0.442058 0.922762
vt 0.517304 0.922762
vt 0.517304 0.998008
vt 0.442058 0.001992
vt 0.517304 0.001992
vt 0.599831 0.922762
vt 0.524585 0.922762
vt 0.524585 0.001992
vt 0.599831 0.001992
vt 0.014997 0.998008
vt 0.014997 0.922762
vt 0.214803 0.922762
vt 0.214803 0.998008
vt 0.001732 0.998008
vt 0.001732 0.922762
vt 0.001732 0.001992
vt 0.014997 0.001992
vt 0.221987 0.998008
vt 0.221987 0.922762
vt 0.421793 0.922762
vt 0.421793 0.998008
vt 0.435058 0.922762
vt 0.435058 0.998008
vt 0.421793 0.001992
vt 0.435058 0.001992
vn 0.000000 0.000000 1.000000
vn 0.000000 0.000000 1.000000
vn 0.000000 0.000000 1.000000
vn 0.000000 0.000000 1.000000
vn 0.000000 1.000000 0.000000
vn 0.000000 1.000000 0.000000
vn 0.000000 1.000000 0.000000
vn 0.000000 1.000000 0.000000
vn 0.000000 0.000000 -1.000000
vn 0.000000 0.000000 -1.000000
vn 0.000000 0.000000 -1.000000
vn 0.000000 0.000000 -1.000000
vn 0.000000 -1.000000 0.000000
vn 0.000000 -1.000000 0.000000
vn 0.000000 -1.000000 0.000000
vn 0.000000 -1.000000 0.000000
vn 1.000000 0.000000 0.000000
vn 1.000000 0.000000 0.000000
vn 1.000000 0.000000 0.000000
vn 1.000000 0.000000 0.000000
vn -1.000000 0.000000 0.000000
vn -1.000000 0.000000 0.000000
vn -1.000000 0.000000 0.000000
vn -1.000000 0.000000 0.000000
vn 0.000000 0.000000 -1.000000
vn 0.000000 0.000000 -1.000000
vn 1.000000 0.000000 0.000000
vn 1.000000 0.000000 0.000000
vn 1.000000 0.000000 0.000000
vn 1.000000 0.000000 0.000000
vn 0.000000 0.000000 1.000000
vn 0.000000 0.000000 1.000000
vn -1.000000 0.000000 0.000000
vn -1.000000 0.000000 0.000000
vn 0.000000 1.000000 0.000000
vn 0.000000 1.000000 0.000000
vn 0.000000 1.000000 0.000000
vn 0.000000 1.000000 0.000000
vn 0.000000 0.000000 1.000000
vn 0.000000 0.000000 1.000000
vn 0.000000 -1.000000 0.000000
vn 0.000000 -1.000000 0.000000
vn 0.000000 0.000000 -1.000000
vn 0.000000 0.000000 -1.000000
s 1
g pCube14
usemtl initialShadingGroup
f 33/117/89 34/118/90 36/119/91 35/120/92
s off
f 35/103/93 36/104/94 38/105/95 37/106/96
s 2
f 37/125/97 38/126/98 40/127/99 39/128/100
s 3
f 41/107/101 42/108/102 43/109/103 44/110/104
s off
f 34/89/105 40/90/106 38/91/107 36/92/108
s 4
f 39/93/109 33/94/110 35/95/111 37/96/112
s 2
f 39/128/100 40/127/99 42/129/113 41/130/114
s off
f 45/99/115 46/100/116 47/101/117 48/102/118
s 1
f 34/118/90 33/117/89 44/121/119 43/122/120
s 4
f 33/94/110 39/93/109 41/97/121 44/98/122
s off
f 40/113/123 34/114/124 46/115/125 45/116/126
s 1
f 34/118/90 43/122/120 47/123/127 46/124/128
s 3
f 43/109/103 42/108/102 48/111/129 47/112/130
s 2
f 42/129/113 40/127/99 45/131/131 48/132/132
