# This file uses centimeters as units for non-parametric coordinates.

mtllib moppen boekje.mtl
g default
v -0.297130 -0.039158 0.500000
v 0.297130 -0.039158 0.500000
v -0.297130 0.039158 0.500000
v 0.297130 0.039158 0.500000
v -0.297130 0.039158 -0.500000
v 0.297130 0.039158 -0.500000
v -0.297130 -0.039158 -0.500000
v 0.297130 -0.039158 -0.500000
vt 0.013540 0.819073
vt 0.721982 0.819073
vt 0.721982 0.974761
vt 0.013540 0.974761
vt 0.017834 0.612436
vt 0.204901 0.612436
vt 0.204901 0.799504
vt 0.017834 0.799504
vt 0.629870 0.019975
vt 0.993142 0.019975
vt 0.993142 0.634280
vt 0.629870 0.634280
vt 0.020438 0.399225
vt 0.221988 0.399225
vt 0.221988 0.600775
vt 0.020438 0.600775
vt 0.027350 0.233743
vt 0.356830 0.233743
vt 0.356830 0.379776
vt 0.027350 0.379776
vt 0.237420 0.398018
vt 0.441384 0.398018
vt 0.441384 0.601982
vt 0.237420 0.601982
vn 0.000000 0.000000 1.000000
vn 0.000000 0.000000 1.000000
vn 0.000000 0.000000 1.000000
vn 0.000000 0.000000 1.000000
vn 0.000000 1.000000 0.000000
vn 0.000000 1.000000 0.000000
vn 0.000000 1.000000 0.000000
vn 0.000000 1.000000 0.000000
vn 0.000000 0.000000 -1.000000
vn 0.000000 0.000000 -1.000000
vn 0.000000 0.000000 -1.000000
vn 0.000000 0.000000 -1.000000
vn 0.000000 -1.000000 0.000000
vn 0.000000 -1.000000 0.000000
vn 0.000000 -1.000000 0.000000
vn 0.000000 -1.000000 0.000000
vn 1.000000 0.000000 0.000000
vn 1.000000 0.000000 0.000000
vn 1.000000 0.000000 0.000000
vn 1.000000 0.000000 0.000000
vn -1.000000 0.000000 0.000000
vn -1.000000 0.000000 0.000000
vn -1.000000 0.000000 0.000000
vn -1.000000 0.000000 0.000000
s off
g pCube1
usemtl lambert2SG
f 1/17/1 2/18/2 4/19/3 3/20/4
f 3/9/5 4/10/6 6/11/7 5/12/8
f 5/21/9 6/22/10 8/23/11 7/24/12
f 7/13/13 8/14/14 2/15/15 1/16/16
f 2/1/17 8/2/18 6/3/19 4/4/20
f 7/5/21 1/6/22 3/7/23 5/8/24
